<svg width="25" height="23" viewBox="0 0 25 23" fill="none" xmlns="http://www.w3.org/2000/svg">
    <path fill-rule="evenodd" clip-rule="evenodd" d="M22.0925 6.08427H21.4012L17.0753 0.468011C16.6785 -0.0498345 15.9302 -0.153872 15.403 0.235948C14.8747 0.624617 14.7688 1.36084 15.1656 1.87868L18.4124 6.08436L6.85385 6.08436L10.1006 1.87868C10.4974 1.36312 10.395 0.629211 9.87019 0.23823C9.34534 -0.15158 8.59705 -0.0498462 8.20018 0.465719L3.86511 6.08432H2.87591C1.47824 6.09689 0.287707 7.08688 0.0444828 8.43925C-0.198742 9.79162 0.575143 11.1211 1.8844 11.6034L3.15057 19.1746C3.47644 21.1591 5.22089 22.619 7.26667 22.619H17.694C19.7387 22.6213 21.4833 21.1672 21.8148 19.1863L23.0833 11.6037C24.41 11.1327 25.2002 9.7929 24.9558 8.42783C24.7103 7.06402 23.5029 6.08084 22.0925 6.08427ZM2.87646 8.4255L22.0925 8.4255C22.3799 8.4255 22.6139 8.65414 22.6139 8.93764C22.6139 9.22 22.3799 9.44978 22.0925 9.44978L2.87646 9.44978C2.58901 9.44978 2.35509 9.22 2.35509 8.93764C2.35509 8.65414 2.58901 8.4255 2.87646 8.4255ZM7.27433 20.2777H12.488H17.7016C18.5733 20.2777 19.3194 19.6593 19.4648 18.8145L20.6391 11.7909L12.4874 11.7909L4.33582 11.7909L5.51006 18.8145C5.65553 19.6593 6.4015 20.2777 7.27433 20.2777ZM15.4445 13.4039L8.72228 13.4039C8.04673 13.4039 7.50006 13.9672 7.50006 14.6605C7.50006 15.3551 8.04673 15.9171 8.72228 15.9171L15.4445 15.9171C16.1201 15.9171 16.6667 15.3551 16.6667 14.6605C16.6667 13.9672 16.1201 13.4039 15.4445 13.4039ZM8.72228 16.7547H15.4445C16.1201 16.7547 16.6667 17.318 16.6667 18.0113C16.6667 18.7059 16.1201 19.2679 15.4445 19.2679H8.72228C8.04673 19.2679 7.50006 18.7059 7.50006 18.0113C7.50006 17.318 8.04673 16.7547 8.72228 16.7547Z" fill="white"/>
</svg>
