<?xml version="1.0" encoding="UTF-8"?>
<svg width="119px" height="84px" viewBox="0 0 119 84" version="1.1" xmlns="http://www.w3.org/2000/svg" xmlns:xlink="http://www.w3.org/1999/xlink">
    <!-- Generator: Sketch 54.1 (76490) - https://sketchapp.com -->
    <title>Logo / White</title>
    <desc>Created with Sketch.</desc>
    <g id="Page-1" stroke="none" stroke-width="1" fill="none" fill-rule="evenodd">
        <g id="Assets" transform="translate(-200.000000, -75.000000)" fill="#FFFFFF">
            <path d="M200,75 L319,75 L319,135.067485 L200,135.067485 L200,75 Z M230.300315,131.166754 L236.370038,112.499624 L232.385946,112.499624 L229.605104,121.458777 L228.187944,127.315656 L228.107728,127.315656 L226.63709,121.458777 L223.856248,112.499624 L219.738463,112.499624 L225.754708,131.166754 L230.300315,131.166754 Z M245.621685,131.166754 L245.621685,127.930762 L243.215187,127.930762 L243.215187,115.735617 L245.621685,115.735617 L245.621685,112.499624 L236.744382,112.499624 L236.744382,115.735617 L239.15088,115.735617 L239.15088,127.930762 L236.744382,127.930762 L236.744382,131.166754 L245.621685,131.166754 Z M259.525896,131.166754 L262.948471,131.166754 L262.948471,120.76344 L255.595282,120.76344 L255.595282,124.159895 L259.071335,124.159895 L259.071335,125.095926 C259.071335,126.9145 257.440264,127.877274 255.40811,127.877274 C252.894657,127.877274 251.263586,126.433113 251.263586,123.330839 L251.263586,120.33554 C251.263586,117.233266 252.894657,115.789104 255.40811,115.789104 C257.573959,115.789104 258.72373,116.965829 259.285246,118.409991 L262.600865,116.511185 C261.210444,113.649605 258.72373,112.178699 255.40811,112.178699 C250.354465,112.178699 246.958629,115.628642 246.958629,121.913421 C246.958629,128.171456 250.327726,131.487679 254.605944,131.487679 C257.413525,131.487679 259.124813,130.070261 259.392201,128.198199 L259.525896,128.198199 L259.525896,131.166754 Z M273.055762,131.487679 C278.002452,131.487679 281.264594,128.171456 281.264594,121.833189 C281.264594,115.494923 278.002452,112.178699 273.055762,112.178699 C268.109072,112.178699 264.84693,115.494923 264.84693,121.833189 C264.84693,128.171456 268.109072,131.487679 273.055762,131.487679 Z M273.055762,127.877274 C270.622525,127.877274 269.151888,126.192419 269.151888,123.223864 L269.151888,120.442515 C269.151888,117.47396 270.622525,115.789104 273.055762,115.789104 C275.488999,115.789104 276.959637,117.47396 276.959637,120.442515 L276.959637,123.223864 C276.959637,126.192419 275.488999,127.877274 273.055762,127.877274 Z M287.387794,124.320357 L290.302331,124.320357 L293.564473,131.166754 L298.083341,131.166754 L294.420116,123.83897 C296.69292,122.98317 297.815952,120.97739 297.815952,118.463478 C297.815952,114.906561 295.623365,112.499624 292.174052,112.499624 L283.323487,112.499624 L283.323487,131.166754 L287.387794,131.166754 L287.387794,124.320357 Z M287.387794,120.897159 L287.387794,116.029798 L291.666013,116.029798 C292.869262,116.029798 293.61795,116.671648 293.61795,117.875116 L293.61795,119.05184 C293.61795,120.255309 292.869262,120.897159 291.666013,120.897159 L287.387794,120.897159 Z M208.681941,159 C203.655035,159 200.419632,155.790751 200.419632,149.479229 C200.419632,143.167706 203.655035,139.69102 208.681941,139.69102 C212.104516,139.69102 214.297103,141.081695 215.660786,144.076993 L212.157994,145.895568 C211.676695,144.344431 210.687356,143.301425 208.681941,143.301425 C206.302182,143.301425 204.724589,144.906049 204.724589,147.847861 L204.724589,150.843159 C204.724589,153.784971 206.302182,155.389595 208.681941,155.389595 C210.687356,155.389595 211.837128,154.132639 212.398644,152.608246 L215.714263,154.533796 C214.323842,157.368632 212.104516,159 208.681941,159 Z M221.275948,151.832678 L221.275948,158.679075 L217.21164,158.679075 L217.21164,140.011945 L226.062205,140.011945 C229.511518,140.011945 231.704105,142.418882 231.704105,145.975799 C231.704105,148.48971 230.581073,150.495491 228.308269,151.351291 L231.971494,158.679075 L227.452626,158.679075 L224.190484,151.832678 L221.275948,151.832678 Z M221.275948,148.409479 L225.554166,148.409479 C226.757415,148.409479 227.506103,147.767629 227.506103,146.564161 L227.506103,145.387437 C227.506103,144.183968 226.757415,143.542119 225.554166,143.542119 L221.275948,143.542119 L221.275948,148.409479 Z M241.116186,159 C236.169496,159 232.907354,155.683776 232.907354,149.34551 C232.907354,143.007244 236.169496,139.69102 241.116186,139.69102 C246.062877,139.69102 249.325018,143.007244 249.325018,149.34551 C249.325018,155.683776 246.062877,159 241.116186,159 Z M241.116186,155.389595 C243.549423,155.389595 245.020061,153.70474 245.020061,150.736185 L245.020061,147.954836 C245.020061,144.986281 243.549423,143.301425 241.116186,143.301425 C238.682949,143.301425 237.212312,144.986281 237.212312,147.954836 L237.212312,150.736185 C237.212312,153.70474 238.682949,155.389595 241.116186,155.389595 Z M257.319939,159 C254.057798,159 251.838472,157.743044 250.23414,155.977957 L252.908026,153.27684 C254.164753,154.694258 255.769085,155.416339 257.587328,155.416339 C259.566004,155.416339 260.528603,154.533796 260.528603,153.169865 C260.528603,152.153603 260.100781,151.404778 258.362755,151.164084 L256.517773,150.923391 C252.58716,150.41526 250.795656,148.48971 250.795656,145.360693 C250.795656,142.017726 253.416065,139.69102 257.801239,139.69102 C260.60882,139.69102 262.747929,140.627051 264.272045,142.311907 L261.571419,145.039768 C260.689036,143.996762 259.485787,143.274681 257.560589,143.274681 C255.742346,143.274681 254.859964,143.970018 254.859964,145.093256 C254.859964,146.376955 255.528435,146.858342 257.07929,147.099036 L258.924271,147.393217 C262.747929,148.008323 264.592911,149.719922 264.592911,152.929171 C264.592911,156.512832 261.972502,159 257.319939,159 Z M272.293704,159 C269.031563,159 266.812237,157.743044 265.207905,155.977957 L267.881791,153.27684 C269.138518,154.694258 270.74285,155.416339 272.561093,155.416339 C274.539769,155.416339 275.502368,154.533796 275.502368,153.169865 C275.502368,152.153603 275.074547,151.404778 273.33652,151.164084 L271.491538,150.923391 C267.560925,150.41526 265.769421,148.48971 265.769421,145.360693 C265.769421,142.017726 268.38983,139.69102 272.775004,139.69102 C275.582585,139.69102 277.721694,140.627051 279.24581,142.311907 L276.545184,145.039768 C275.662802,143.996762 274.459553,143.274681 272.534354,143.274681 C270.716111,143.274681 269.833729,143.970018 269.833729,145.093256 C269.833729,146.376955 270.5022,146.858342 272.053055,147.099036 L273.898036,147.393217 C277.721694,148.008323 279.566676,149.719922 279.566676,152.929171 C279.566676,156.512832 276.946267,159 272.293704,159 Z M285.663138,158.679075 L281.59883,158.679075 L281.59883,140.011945 L293.978925,140.011945 L293.978925,143.62235 L285.663138,143.62235 L285.663138,147.687398 L292.748937,147.687398 L292.748937,151.271059 L285.663138,151.271059 L285.663138,158.679075 Z M304.059478,158.679075 L295.182174,158.679075 L295.182174,155.443083 L297.588672,155.443083 L297.588672,143.247938 L295.182174,143.247938 L295.182174,140.011945 L304.059478,140.011945 L304.059478,143.247938 L301.65298,143.247938 L301.65298,155.443083 L304.059478,155.443083 L304.059478,158.679075 Z M318.846071,143.62235 L313.792425,143.62235 L313.792425,158.679075 L309.728117,158.679075 L309.728117,143.62235 L304.674472,143.62235 L304.674472,140.011945 L318.846071,140.011945 L318.846071,143.62235 Z" id="Logo-/-White"></path>
        </g>
    </g>
</svg>