<svg width="297" height="249" viewBox="0 0 297 249" fill="none" xmlns="http://www.w3.org/2000/svg">
<g id="Icon/Map/Pin">
<g id="Rectangle" opacity="0.23012" filter="url(#filter0_f)">
<path fill-rule="evenodd" clip-rule="evenodd" d="M27 189H270L219.452 212.493L147.227 222L70.4609 212.493L27 189Z" fill="black"/>
</g>
<path id="Rectangle_2" fill-rule="evenodd" clip-rule="evenodd" d="M57 0H240V155.233L145.353 222L57 155.233V0Z" fill="white"/>
<g id="logo 1">
<path id="Logo / White" fill-rule="evenodd" clip-rule="evenodd" d="M78 21H219V93.9391H78V21ZM113.902 89.2025L121.094 66.5353H116.373L113.078 77.4142L111.399 84.5262H111.304L109.562 77.4142L106.267 66.5353H101.388L108.516 89.2025H113.902ZM132.056 89.2025V85.2731H129.205V70.4647H132.056V66.5353H121.537V70.4647H124.389V85.2731H121.537V89.2025H132.056ZM148.531 89.2025H152.586V76.5699H143.873V80.6942H147.992V81.8308C147.992 84.039 146.059 85.2081 143.652 85.2081C140.674 85.2081 138.741 83.4545 138.741 79.6875V76.0503C138.741 72.2833 140.674 70.5296 143.652 70.5296C146.218 70.5296 147.58 71.9585 148.246 73.7121L152.174 71.4064C150.527 67.9317 147.58 66.1456 143.652 66.1456C137.664 66.1456 133.64 70.3348 133.64 77.9663C133.64 85.5653 137.632 89.5922 142.701 89.5922C146.028 89.5922 148.055 87.871 148.372 85.5978H148.531V89.2025ZM164.562 89.5922C170.423 89.5922 174.288 85.5653 174.288 77.8689C174.288 70.1724 170.423 66.1456 164.562 66.1456C158.701 66.1456 154.835 70.1724 154.835 77.8689C154.835 85.5653 158.701 89.5922 164.562 89.5922ZM164.562 85.2081C161.679 85.2081 159.936 83.1622 159.936 79.5575V76.1802C159.936 72.5755 161.679 70.5296 164.562 70.5296C167.445 70.5296 169.187 72.5755 169.187 76.1802V79.5575C169.187 83.1622 167.445 85.2081 164.562 85.2081ZM181.544 80.889H184.997L188.862 89.2025H194.216L189.876 80.3045C192.569 79.2653 193.9 76.8297 193.9 73.7771C193.9 69.458 191.302 66.5353 187.215 66.5353H176.728V89.2025H181.544V80.889ZM181.544 76.7323V70.8219H186.613C188.038 70.8219 188.925 71.6013 188.925 73.0626V74.4915C188.925 75.9529 188.038 76.7323 186.613 76.7323H181.544ZM88.287 123C82.3308 123 78.4972 119.103 78.4972 111.439C78.4972 103.775 82.3308 99.5534 88.287 99.5534C92.3423 99.5534 94.9403 101.242 96.5561 104.879L92.4057 107.087C91.8354 105.204 90.6632 103.937 88.287 103.937C85.4673 103.937 83.598 105.886 83.598 109.458V113.095C83.598 116.667 85.4673 118.616 88.287 118.616C90.6632 118.616 92.0255 117.09 92.6908 115.239L96.6194 117.577C94.9719 121.019 92.3423 123 88.287 123ZM103.209 114.297V122.61H98.3936V99.9431H108.88C112.967 99.9431 115.565 102.866 115.565 107.185C115.565 110.238 114.235 112.673 111.542 113.712L115.882 122.61H110.528L106.663 114.297H103.209ZM103.209 110.14H108.278C109.704 110.14 110.591 109.361 110.591 107.899V106.47C110.591 105.009 109.704 104.23 108.278 104.23H103.209V110.14ZM126.717 123C120.856 123 116.991 118.973 116.991 111.277C116.991 103.58 120.856 99.5534 126.717 99.5534C132.579 99.5534 136.444 103.58 136.444 111.277C136.444 118.973 132.579 123 126.717 123ZM126.717 118.616C129.601 118.616 131.343 116.57 131.343 112.965V109.588C131.343 105.983 129.601 103.937 126.717 103.937C123.834 103.937 122.092 105.983 122.092 109.588V112.965C122.092 116.57 123.834 118.616 126.717 118.616ZM145.917 123C142.052 123 139.422 121.474 137.521 119.33L140.689 116.05C142.178 117.772 144.079 118.648 146.234 118.648C148.578 118.648 149.719 117.577 149.719 115.921C149.719 114.687 149.212 113.777 147.153 113.485L144.966 113.193C140.309 112.576 138.186 110.237 138.186 106.438C138.186 102.379 141.291 99.5534 146.487 99.5534C149.814 99.5534 152.348 100.69 154.154 102.736L150.954 106.048C149.909 104.782 148.483 103.905 146.202 103.905C144.048 103.905 143.002 104.749 143.002 106.113C143.002 107.672 143.794 108.257 145.632 108.549L147.818 108.906C152.348 109.653 154.534 111.731 154.534 115.628C154.534 119.98 151.43 123 145.917 123ZM163.659 123C159.794 123 157.164 121.474 155.263 119.33L158.431 116.05C159.92 117.772 161.821 118.648 163.976 118.648C166.32 118.648 167.461 117.577 167.461 115.921C167.461 114.687 166.954 113.777 164.895 113.485L162.708 113.193C158.051 112.576 155.928 110.237 155.928 106.438C155.928 102.379 159.033 99.5534 164.229 99.5534C167.556 99.5534 170.09 100.69 171.896 102.736L168.696 106.048C167.651 104.782 166.225 103.905 163.944 103.905C161.79 103.905 160.744 104.749 160.744 106.113C160.744 107.672 161.536 108.257 163.374 108.549L165.56 108.906C170.09 109.653 172.276 111.731 172.276 115.628C172.276 119.98 169.172 123 163.659 123ZM179.5 122.61H174.684V99.9431H189.353V104.327H179.5V109.263H187.896V113.615H179.5V122.61ZM201.297 122.61H190.779V118.681H193.63V103.872H190.779V99.9431H201.297V103.872H198.446V118.681H201.297V122.61ZM218.818 104.327H212.83V122.61H208.014V104.327H202.026V99.9431H218.818V104.327Z" fill="black"/>
</g>
</g>
<defs>
<filter id="filter0_f" x="2.53546" y="164.535" width="291.929" height="81.9291" filterUnits="userSpaceOnUse" color-interpolation-filters="sRGB">
<feFlood flood-opacity="0" result="BackgroundImageFix"/>
<feBlend mode="normal" in="SourceGraphic" in2="BackgroundImageFix" result="shape"/>
<feGaussianBlur stdDeviation="4.07742" result="effect1_foregroundBlur"/>
</filter>
</defs>
</svg>
