<svg width="239" height="88" viewBox="0 0 239 88" fill="none" xmlns="http://www.w3.org/2000/svg">
<path d="M104.545 24.4727V65.5991H133.633V57.9959H113.588V24.4727H104.545ZM142.614 50.7383C142.614 49.5478 142.729 48.3767 142.959 47.2247C143.19 46.0727 143.574 45.055 144.111 44.1719C144.687 43.2887 145.436 42.5782 146.358 42.0407C147.279 41.4647 148.431 41.1767 149.814 41.1767C151.196 41.1767 152.348 41.4647 153.27 42.0407C154.23 42.5782 154.978 43.2887 155.516 44.1719C156.092 45.055 156.495 46.0727 156.726 47.2247C156.956 48.3767 157.071 49.5478 157.071 50.7383C157.071 51.9287 156.956 53.0999 156.726 54.2519C156.495 55.3654 156.092 56.3831 155.516 57.3047C154.978 58.1878 154.23 58.8983 153.27 59.4359C152.348 59.9734 151.196 60.2423 149.814 60.2423C148.431 60.2423 147.279 59.9734 146.358 59.4359C145.436 58.8983 144.687 58.1878 144.111 57.3047C143.574 56.3831 143.19 55.3654 142.959 54.2519C142.729 53.0999 142.614 51.9287 142.614 50.7383ZM134.435 50.7383C134.435 53.119 134.799 55.2695 135.529 57.1895C136.258 59.1094 137.295 60.7607 138.639 62.1431C139.983 63.487 141.596 64.5238 143.478 65.2535C145.359 65.9831 147.471 66.3479 149.814 66.3479C152.156 66.3479 154.268 65.9831 156.15 65.2535C158.07 64.5238 159.702 63.487 161.046 62.1431C162.39 60.7607 163.427 59.1094 164.156 57.1895C164.886 55.2695 165.251 53.119 165.251 50.7383C165.251 48.3575 164.886 46.207 164.156 44.2871C163.427 42.3287 162.39 40.6774 161.046 39.3335C159.702 37.9511 158.07 36.8951 156.15 36.1655C154.268 35.3975 152.156 35.0135 149.814 35.0135C147.471 35.0135 145.359 35.3975 143.478 36.1655C141.596 36.8951 139.983 37.9511 138.639 39.3335C137.295 40.6774 136.258 42.3287 135.529 44.2871C134.799 46.207 134.435 48.3575 134.435 50.7383ZM181.982 58.5719C180.714 58.5719 179.658 58.303 178.814 57.7655C177.969 57.2279 177.278 56.5367 176.74 55.6919C176.241 54.847 175.876 53.9063 175.646 52.8695C175.454 51.7942 175.358 50.7191 175.358 49.6439C175.358 48.5303 175.473 47.4742 175.703 46.4759C175.972 45.4391 176.375 44.5366 176.913 43.7687C177.489 42.9623 178.18 42.3287 178.986 41.8679C179.831 41.4071 180.83 41.1767 181.982 41.1767C183.326 41.1767 184.439 41.4262 185.322 41.9255C186.206 42.4247 186.916 43.0966 187.454 43.9415C187.991 44.7863 188.375 45.7655 188.606 46.8791C188.836 47.9543 188.951 49.1063 188.951 50.3351C188.951 51.4103 188.798 52.4471 188.49 53.4455C188.222 54.4055 187.799 55.2695 187.223 56.0375C186.647 56.8054 185.918 57.4198 185.034 57.8806C184.151 58.3414 183.134 58.5719 181.982 58.5719ZM196.728 63.6983V35.8199H188.951V39.7943H188.836C187.838 38.0663 186.59 36.8375 185.092 36.1079C183.633 35.3782 181.924 35.0135 179.966 35.0135C177.892 35.0135 176.049 35.4167 174.436 36.2231C172.862 37.0295 171.537 38.1239 170.462 39.5063C169.386 40.8502 168.561 42.4247 167.985 44.2295C167.447 45.9959 167.178 47.8391 167.178 49.7591C167.178 51.7942 167.409 53.7335 167.87 55.5767C168.369 57.3814 169.137 58.9751 170.174 60.3575C171.21 61.7014 172.535 62.7767 174.148 63.5831C175.761 64.351 177.681 64.7351 179.908 64.7351C181.713 64.7351 183.422 64.3703 185.034 63.6407C186.686 62.8727 187.953 61.7014 188.836 60.1271H188.951V64.0439C188.99 66.1559 188.471 67.9031 187.396 69.2855C186.359 70.6679 184.689 71.3591 182.385 71.3591C180.926 71.3591 179.639 71.0519 178.526 70.4375C177.412 69.8615 176.663 68.8055 176.279 67.2695H168.158C168.273 68.959 168.734 70.399 169.54 71.5895C170.385 72.8182 171.422 73.8167 172.65 74.5847C173.918 75.3526 175.3 75.9095 176.798 76.2551C178.334 76.6391 179.831 76.8311 181.29 76.8311C184.708 76.8311 187.434 76.3703 189.47 75.4487C191.505 74.5271 193.06 73.3942 194.135 72.0503C195.211 70.7446 195.903 69.3239 196.209 67.7879C196.555 66.2518 196.728 64.8887 196.728 63.6983ZM208.101 50.7383C208.101 49.5478 208.217 48.3767 208.447 47.2247C208.677 46.0727 209.062 45.055 209.599 44.1719C210.175 43.2887 210.924 42.5782 211.845 42.0407C212.767 41.4647 213.919 41.1767 215.301 41.1767C216.684 41.1767 217.836 41.4647 218.757 42.0407C219.718 42.5782 220.467 43.2887 221.004 44.1719C221.58 45.055 221.983 46.0727 222.213 47.2247C222.444 48.3767 222.559 49.5478 222.559 50.7383C222.559 51.9287 222.444 53.0999 222.213 54.2519C221.983 55.3654 221.58 56.3831 221.004 57.3047C220.467 58.1878 219.718 58.8983 218.757 59.4359C217.836 59.9734 216.684 60.2423 215.301 60.2423C213.919 60.2423 212.767 59.9734 211.845 59.4359C210.924 58.8983 210.175 58.1878 209.599 57.3047C209.062 56.3831 208.677 55.3654 208.447 54.2519C208.217 53.0999 208.101 51.9287 208.101 50.7383ZM199.922 50.7383C199.922 53.119 200.286 55.2695 201.017 57.1895C201.747 59.1094 202.784 60.7607 204.127 62.1431C205.47 63.487 207.083 64.5238 208.965 65.2535C210.848 65.9831 212.958 66.3479 215.301 66.3479C217.645 66.3479 219.755 65.9831 221.637 65.2535C223.557 64.5238 225.19 63.487 226.533 62.1431C227.877 60.7607 228.914 59.1094 229.644 57.1895C230.374 55.2695 230.738 53.119 230.738 50.7383C230.738 48.3575 230.374 46.207 229.644 44.2871C228.914 42.3287 227.877 40.6774 226.533 39.3335C225.19 37.9511 223.557 36.8951 221.637 36.1655C219.755 35.3975 217.645 35.0135 215.301 35.0135C212.958 35.0135 210.848 35.3975 208.965 36.1655C207.083 36.8951 205.47 37.9511 204.127 39.3335C202.784 40.6774 201.747 42.3287 201.017 44.2871C200.286 46.207 199.922 48.3575 199.922 50.7383Z" fill="#8E98A4"/>
<path d="M80 61.5999L43.7208 80L8 61.5999V26.4725L43.7208 8L80 26.4725V61.5999ZM43.7208 16.6034L19.4418 29.5393L43.7208 42.0848L68.5582 29.5393L43.7208 16.6034Z" fill="#8E98A4"/>
</svg>
